<svg width="22" height="22" viewBox="0 0 22 22" fill="none" xmlns="http://www.w3.org/2000/svg">
<path d="M15.3748 2.24984C16.5342 2.25331 17.6451 2.71539 18.4648 3.53517C19.2846 4.35495 19.7467 5.46582 19.7502 6.62516V15.3748C19.7467 16.5342 19.2846 17.6451 18.4648 18.4648C17.6451 19.2846 16.5342 19.7467 15.3748 19.7502H6.62516C5.46582 19.7467 4.35495 19.2846 3.53517 18.4648C2.71539 17.6451 2.25331 16.5342 2.24984 15.3748V6.62516C2.25331 5.46582 2.71539 4.35495 3.53517 3.53517C4.35495 2.71539 5.46582 2.25331 6.62516 2.24984H15.3748ZM15.3748 0.5H6.62516C3.25625 0.5 0.5 3.25625 0.5 6.62516V15.3748C0.5 18.7437 3.25625 21.5 6.62516 21.5H15.3748C18.7437 21.5 21.5 18.7437 21.5 15.3748V6.62516C21.5 3.25625 18.7437 0.5 15.3748 0.5Z" fill="url(#paint0_linear)"/>
<path d="M16.6873 6.6251C16.4277 6.6251 16.1739 6.54813 15.9581 6.40391C15.7422 6.25969 15.574 6.0547 15.4747 5.81487C15.3753 5.57505 15.3493 5.31115 15.4 5.05655C15.4506 4.80195 15.5756 4.56808 15.7592 4.38453C15.9427 4.20097 16.1766 4.07597 16.4312 4.02532C16.6858 3.97468 16.9497 4.00067 17.1895 4.10001C17.4294 4.19935 17.6343 4.36758 17.7786 4.58342C17.9228 4.79926 17.9998 5.05302 17.9998 5.3126C18.0001 5.48507 17.9664 5.65591 17.9006 5.81531C17.8348 5.97472 17.7381 6.11956 17.6162 6.24151C17.4942 6.36346 17.3494 6.46012 17.19 6.52595C17.0306 6.59178 16.8597 6.62547 16.6873 6.6251Z" fill="url(#paint1_linear)"/>
<path d="M10.9999 7.49984C11.6922 7.49984 12.3689 7.70512 12.9445 8.08973C13.5201 8.47433 13.9688 9.02098 14.2337 9.66055C14.4986 10.3001 14.5679 11.0039 14.4328 11.6828C14.2978 12.3618 13.9644 12.9855 13.4749 13.475C12.9854 13.9645 12.3618 14.2978 11.6828 14.4329C11.0038 14.568 10.3001 14.4986 9.6605 14.2337C9.02093 13.9688 8.47428 13.5202 8.08968 12.9446C7.70508 12.369 7.4998 11.6923 7.4998 11C7.50079 10.072 7.86987 9.1823 8.52606 8.52611C9.18226 7.86992 10.072 7.50084 10.9999 7.49984ZM10.9999 5.75C9.9616 5.75 8.94657 6.05791 8.08321 6.63478C7.21985 7.21166 6.54695 8.0316 6.14959 8.99091C5.75223 9.95022 5.64826 11.0058 5.85083 12.0242C6.05341 13.0426 6.55342 13.9781 7.28764 14.7123C8.02187 15.4465 8.95733 15.9466 9.97573 16.1491C10.9941 16.3517 12.0497 16.2477 13.009 15.8504C13.9683 15.453 14.7883 14.7801 15.3652 13.9167C15.942 13.0534 16.2499 12.0384 16.2499 11C16.2499 9.60761 15.6968 8.27226 14.7123 7.28769C13.7277 6.30312 12.3923 5.75 10.9999 5.75Z" fill="url(#paint2_linear)"/>
<defs>
<linearGradient id="paint0_linear" x1="22" y1="0.999999" x2="0.999974" y2="21" gradientUnits="userSpaceOnUse">
<stop stop-color="#9F28AD"/>
<stop offset="0.505037" stop-color="#F44436"/>
<stop offset="1" stop-color="#FEB50C"/>
</linearGradient>
<linearGradient id="paint1_linear" x1="22" y1="0.999999" x2="0.999974" y2="21" gradientUnits="userSpaceOnUse">
<stop stop-color="#9F28AD"/>
<stop offset="0.505037" stop-color="#F44436"/>
<stop offset="1" stop-color="#FEB50C"/>
</linearGradient>
<linearGradient id="paint2_linear" x1="22" y1="0.999999" x2="0.999974" y2="21" gradientUnits="userSpaceOnUse">
<stop stop-color="#9F28AD"/>
<stop offset="0.505037" stop-color="#F44436"/>
<stop offset="1" stop-color="#FEB50C"/>
</linearGradient>
</defs>
</svg>
