<svg width="81" height="17" viewBox="0 0 81 17" fill="none" xmlns="http://www.w3.org/2000/svg">
<path d="M1.49747 0C1.4209 0.0502216 0 5.55785 0 5.55785H1.33582V17H6.78118V11.8355L9.3337 17H16.1404L10.9078 8.11078L15.2981 0.0418507H9.15502L6.7982 5.06401L6.74715 0.0418507L1.49747 0Z" fill="#008954"/>
<path d="M18.3442 5.32348H17.0254L18.3442 0H23.4918V7.2905L28.0949 0H33.4211L33.2765 11.9527H34.7399L33.3871 16.8493H28.0268L27.9927 9.99409L23.5939 16.8493L18.3102 17L18.3442 5.32348Z" fill="#008954"/>
<path fill-rule="evenodd" clip-rule="evenodd" d="M37.8452 0L36.2031 5.08075L36.2967 5.46578H37.658V17H43.197L43.1204 13.2334H44.8221C46.1294 13.1789 47.3883 12.732 48.4297 11.9527C51.0418 10.0108 50.9312 5.99311 50.9312 5.99311C50.7929 4.55571 50.1918 3.19926 49.2154 2.1213C48.2391 1.04334 46.9384 0.300168 45.5028 0H37.8452ZM43.1376 8.11082V5.43234H44.4053C44.6976 5.42575 44.9812 5.53074 45.1966 5.7253C45.4288 5.95473 45.5884 6.24548 45.6561 6.56232C45.7116 6.90024 45.6368 7.24638 45.4463 7.53285C45.2559 7.81933 44.9635 8.02546 44.6265 8.11082C44.5505 8.12301 44.4729 8.12301 44.3968 8.11082H43.1376Z" fill="#008954"/>
<path d="M52.2417 5.00542L53.7817 0H65.1064L64.0343 5.29H58.9293V17H53.7137V5.4323H52.2417V5.00542Z" fill="#008954"/>
<path d="M75.7844 0H81L74.1423 16.7824L68.4672 17L71.0027 12.5638L66.1784 0H71.862L73.5892 6.06007L75.7844 0Z" fill="#008954"/>
</svg>
