<svg width="22" height="22" viewBox="0 0 22 22" fill="none" xmlns="http://www.w3.org/2000/svg">
<path d="M20.3408 0.5H1.65922C1.35181 0.500124 1.05703 0.622296 0.839665 0.839665C0.622296 1.05703 0.500124 1.35181 0.5 1.65922V20.3408C0.500124 20.6482 0.622296 20.943 0.839665 21.1603C1.05703 21.3777 1.35181 21.4999 1.65922 21.5H11V13.25H8.48984V10.25H11V7.85938C11 5.14719 12.8811 3.67062 15.3041 3.67062C16.4633 3.67062 17.7102 3.75781 17.9998 3.79625V6.62891H16.0695C14.7514 6.62891 14.5002 7.25234 14.5002 8.17109V10.25H17.6408L17.2306 13.25H14.5002V21.5H20.3408C20.6482 21.4999 20.943 21.3777 21.1603 21.1603C21.3777 20.943 21.4999 20.6482 21.5 20.3408V1.65922C21.4999 1.35181 21.3777 1.05703 21.1603 0.839665C20.943 0.622296 20.6482 0.500124 20.3408 0.5Z" fill="#093F76"/>
</svg>
