<svg width="20" height="20" viewBox="0 0 20 20" fill="none" xmlns="http://www.w3.org/2000/svg">
<path d="M8.36364 1L8.36371 0H8.36364V1ZM15.7272 8.36359H16.7272V8.36353L15.7272 8.36359ZM14.2776 12.8634C13.8871 12.4728 13.2539 12.4728 12.8634 12.8634C12.4728 13.2539 12.4728 13.887 12.8634 14.2776L14.2776 12.8634ZM18.2929 19.7071C18.6834 20.0976 19.3166 20.0976 19.7071 19.7071C20.0976 19.3166 20.0976 18.6834 19.7071 18.2929L18.2929 19.7071ZM8.36364 0C6.70948 0 5.09247 0.490516 3.71708 1.40952L4.82822 3.07246C5.87471 2.37322 7.10504 2 8.36364 2V0ZM3.71708 1.40952C2.34169 2.32852 1.26971 3.63474 0.63669 5.16299L2.48445 5.92835C2.96609 4.76556 3.78173 3.7717 4.82822 3.07246L3.71708 1.40952ZM0.63669 5.16299C0.00366914 6.69123 -0.161958 8.37287 0.160753 9.99525L2.12232 9.60507C1.87678 8.37065 2.0028 7.09115 2.48445 5.92835L0.63669 5.16299ZM0.160753 9.99525C0.483464 11.6176 1.28002 13.1079 2.44969 14.2775L3.8639 12.8633C2.97394 11.9734 2.36786 10.8395 2.12232 9.60507L0.160753 9.99525ZM2.44969 14.2775C3.61936 15.4472 5.10961 16.2438 6.73199 16.5665L7.12217 14.6049C5.88775 14.3594 4.75387 13.7533 3.8639 12.8633L2.44969 14.2775ZM6.73199 16.5665C8.35437 16.8892 10.036 16.7236 11.5643 16.0905L10.7989 14.2428C9.63609 14.7244 8.35658 14.8505 7.12217 14.6049L6.73199 16.5665ZM11.5643 16.0905C13.0925 15.4575 14.3987 14.3855 15.3177 13.0102L13.6548 11.899C12.9555 12.9455 11.9617 13.7611 10.7989 14.2428L11.5643 16.0905ZM15.3177 13.0102C16.2367 11.6348 16.7272 10.0178 16.7272 8.36359H14.7272C14.7272 9.62219 14.354 10.8525 13.6548 11.899L15.3177 13.0102ZM16.7272 8.36353C16.7271 6.14543 15.8459 4.01821 14.2775 2.44978L12.8632 3.86399C14.0566 5.05738 14.7271 6.67594 14.7272 8.36366L16.7272 8.36353ZM14.2775 2.44978C12.709 0.881342 10.5818 0.000141203 8.36371 0L8.36358 2C10.0513 2.00011 11.6699 2.6706 12.8632 3.86399L14.2775 2.44978ZM12.8634 14.2776L18.2929 19.7071L19.7071 18.2929L14.2776 12.8634L12.8634 14.2776Z" fill="black" fill-opacity="0.24"/>
</svg>
