<svg width="12" height="11" viewBox="0 0 12 11" fill="none" xmlns="http://www.w3.org/2000/svg">
<path d="M5.54874 0.945683C5.72986 0.566122 6.27014 0.566122 6.45126 0.945683L7.61122 3.37657C7.68411 3.52933 7.82933 3.63484 7.99713 3.65696L10.6675 4.00896C11.0844 4.06392 11.2514 4.57776 10.9464 4.8673L8.99292 6.72168C8.87017 6.8382 8.8147 7.00892 8.84552 7.17535L9.33593 9.82379C9.4125 10.2373 8.97541 10.5549 8.60578 10.3543L6.23851 9.06945C6.08975 8.98871 5.91025 8.98871 5.76149 9.06945L3.39422 10.3543C3.02459 10.5549 2.5875 10.2373 2.66407 9.82379L3.15448 7.17535C3.1853 7.00892 3.12983 6.8382 3.00708 6.72168L1.05361 4.8673C0.748598 4.57776 0.915553 4.06392 1.33251 4.00896L4.00287 3.65696C4.17067 3.63484 4.31589 3.52933 4.38878 3.37657L5.54874 0.945683Z" fill="black" fill-opacity="0.12"/>
</svg>
