<svg width="40" height="40" viewBox="0 0 40 40" fill="none" xmlns="http://www.w3.org/2000/svg">
<path d="M6.83515 29.6875C6.92812 29.3453 6.72265 28.8695 6.52656 28.5266C6.4655 28.4243 6.39927 28.3252 6.32812 28.2297C4.64629 25.6791 3.74989 22.6911 3.74999 19.6359C3.72265 10.8664 10.9945 3.75 19.9867 3.75C27.8289 3.75 34.375 9.18281 35.9047 16.3945C36.1339 17.4637 36.2496 18.5542 36.25 19.6477C36.25 28.4297 29.2586 35.6578 20.2664 35.6578C18.8367 35.6578 16.907 35.2984 15.8547 35.0039C14.8023 34.7094 13.7516 34.3188 13.4805 34.2141C13.2032 34.1075 12.9087 34.0527 12.6117 34.0523C12.2873 34.0511 11.9659 34.1157 11.6672 34.2422L6.36796 36.1547C6.25187 36.2047 6.12885 36.2369 6.00312 36.25C5.9039 36.2497 5.80572 36.2297 5.71428 36.1912C5.62284 36.1527 5.53994 36.0964 5.4704 36.0256C5.40086 35.9549 5.34606 35.871 5.30916 35.7789C5.27227 35.6868 5.25401 35.5883 5.25546 35.4891C5.26198 35.402 5.27769 35.3158 5.30234 35.232L6.83515 29.6875Z" stroke="white" stroke-width="2" stroke-miterlimit="10" stroke-linecap="round"/>
<path fill-rule="evenodd" clip-rule="evenodd" d="M27.8 23.6414C27.3648 23.4242 25.2219 22.3758 24.825 22.2313C24.4281 22.0867 24.1352 22.0141 23.8453 22.4484C23.5555 22.8828 22.7203 23.8547 22.4664 24.1477C22.2125 24.4406 21.9586 24.4727 21.5234 24.2555C21.0883 24.0383 19.6844 23.5812 18.0211 22.1047C16.7266 20.9555 15.8531 19.5367 15.5992 19.1031C15.3453 18.6695 15.5719 18.4344 15.7898 18.2188C15.9859 18.0242 16.225 17.7125 16.443 17.4594C16.6609 17.2062 16.7336 17.025 16.8781 16.7359C17.0227 16.4469 16.9508 16.1937 16.8422 15.9773C16.7336 15.7609 15.8625 13.6273 15.5 12.7594C15.1461 11.9141 14.7875 12.0289 14.5203 12.0156C14.2664 12.0031 13.9734 12 13.6852 12C13.4648 12.0057 13.2479 12.0568 13.0482 12.1501C12.8484 12.2434 12.6701 12.3769 12.5242 12.5422C12.125 12.9766 11 14.0266 11 16.1578C11 18.2891 12.5625 20.3516 12.7781 20.6406C12.9938 20.9297 15.8484 25.307 20.2164 27.1844C21.0275 27.5317 21.8562 27.8363 22.6992 28.0969C23.7422 28.4266 24.6914 28.3805 25.4414 28.2688C26.2781 28.1445 28.0195 27.2203 28.3813 26.2078C28.743 25.1953 28.7438 24.3281 28.6352 24.1477C28.5266 23.9672 28.2359 23.8578 27.8 23.6414Z" fill="white"/>
</svg>
