<svg width="32" height="32" viewBox="0 0 32 32" fill="none" xmlns="http://www.w3.org/2000/svg">
<path d="M26 13.8182C26 21.4545 16 28 16 28C16 28 6 21.4545 6 13.8182C6 11.2142 7.05357 8.71695 8.92893 6.87568C10.8043 5.03441 13.3478 4 16 4C18.6522 4 21.1957 5.03441 23.0711 6.87568C24.9464 8.71695 26 11.2142 26 13.8182Z" stroke="white" stroke-opacity="0.5" stroke-width="2" stroke-linecap="round" stroke-linejoin="round"/>
<path d="M16 16C17.6569 16 19 14.6569 19 13C19 11.3431 17.6569 10 16 10C14.3431 10 13 11.3431 13 13C13 14.6569 14.3431 16 16 16Z" stroke="white" stroke-opacity="0.5" stroke-width="2" stroke-linecap="round" stroke-linejoin="round"/>
</svg>
