<svg width="40" height="40" viewBox="0 0 40 40" fill="none" xmlns="http://www.w3.org/2000/svg">
<path d="M31.875 5H8.125C6.96569 5.0033 5.85481 5.46529 5.03505 6.28505C4.21529 7.10481 3.7533 8.21569 3.75 9.375V24.375C3.7533 25.5343 4.21529 26.6452 5.03505 27.4649C5.85481 28.2847 6.96569 28.7467 8.125 28.75H11.25V35L18.5719 28.8953C18.6843 28.8014 18.8262 28.75 18.9727 28.75H31.875C33.0343 28.7467 34.1452 28.2847 34.9649 27.4649C35.7847 26.6452 36.2467 25.5343 36.25 24.375V9.375C36.2467 8.21569 35.7847 7.10481 34.9649 6.28505C34.1452 5.46529 33.0343 5.0033 31.875 5V5Z" stroke="white" stroke-width="2" stroke-linejoin="round"/>
<path d="M12.5001 19.375C13.8808 19.375 15.0001 18.2557 15.0001 16.875C15.0001 15.4943 13.8808 14.375 12.5001 14.375C11.1194 14.375 10.0001 15.4943 10.0001 16.875C10.0001 18.2557 11.1194 19.375 12.5001 19.375Z" fill="white"/>
<path d="M20.0001 19.375C21.3808 19.375 22.5001 18.2557 22.5001 16.875C22.5001 15.4943 21.3808 14.375 20.0001 14.375C18.6194 14.375 17.5001 15.4943 17.5001 16.875C17.5001 18.2557 18.6194 19.375 20.0001 19.375Z" fill="white"/>
<path d="M27.5001 19.375C28.8808 19.375 30.0001 18.2557 30.0001 16.875C30.0001 15.4943 28.8808 14.375 27.5001 14.375C26.1194 14.375 25.0001 15.4943 25.0001 16.875C25.0001 18.2557 26.1194 19.375 27.5001 19.375Z" fill="white"/>
</svg>
