<svg width="40" height="40" viewBox="0 0 40 40" fill="none" xmlns="http://www.w3.org/2000/svg">
<circle cx="20" cy="20" r="16" stroke="white" stroke-width="2"/>
<path fill-rule="evenodd" clip-rule="evenodd" d="M27.8 23.6414C27.3648 23.4242 25.2219 22.3758 24.825 22.2313C24.4281 22.0867 24.1352 22.0141 23.8453 22.4484C23.5555 22.8828 22.7203 23.8547 22.4664 24.1477C22.2125 24.4406 21.9586 24.4727 21.5234 24.2555C21.0883 24.0383 19.6844 23.5812 18.0211 22.1047C16.7266 20.9555 15.8531 19.5367 15.5992 19.1031C15.3453 18.6695 15.5719 18.4344 15.7898 18.2188C15.9859 18.0242 16.225 17.7125 16.443 17.4594C16.6609 17.2062 16.7336 17.025 16.8781 16.7359C17.0227 16.4469 16.9508 16.1937 16.8422 15.9773C16.7336 15.7609 15.8625 13.6273 15.5 12.7594C15.1461 11.9141 14.7875 12.0289 14.5203 12.0156C14.2664 12.0031 13.9734 12 13.6852 12C13.4648 12.0057 13.2479 12.0568 13.0482 12.1501C12.8484 12.2434 12.6701 12.3769 12.5242 12.5422C12.125 12.9766 11 14.0266 11 16.1578C11 18.2891 12.5625 20.3516 12.7781 20.6406C12.9938 20.9297 15.8484 25.307 20.2164 27.1844C21.0275 27.5317 21.8562 27.8363 22.6992 28.0969C23.7422 28.4266 24.6914 28.3805 25.4414 28.2688C26.2781 28.1445 28.0195 27.2203 28.3813 26.2078C28.743 25.1953 28.7438 24.3281 28.6352 24.1477C28.5266 23.9672 28.2359 23.8578 27.8 23.6414Z" fill="white"/>
</svg>
