<svg width="24" height="24" viewBox="0 0 24 24" fill="none" xmlns="http://www.w3.org/2000/svg">
<path d="M16.0312 20.8125H18.1875C18.8837 20.8125 19.5514 20.5359 20.0437 20.0437C20.5359 19.5514 20.8125 18.8837 20.8125 18.1875V16.0312" stroke="black" stroke-width="2" stroke-linecap="round" stroke-linejoin="round"/>
<path d="M20.8125 7.96875V5.8125C20.8125 5.11631 20.5359 4.44863 20.0437 3.95634C19.5514 3.46406 18.8837 3.1875 18.1875 3.1875H16.0312" stroke="black" stroke-width="2" stroke-linecap="round" stroke-linejoin="round"/>
<path d="M7.96875 20.8125H5.8125C5.11631 20.8125 4.44863 20.5359 3.95634 20.0437C3.46406 19.5514 3.1875 18.8837 3.1875 18.1875V16.0312" stroke="black" stroke-width="2" stroke-linecap="round" stroke-linejoin="round"/>
<path d="M3.1875 7.96875V5.8125C3.1875 5.11631 3.46406 4.44863 3.95634 3.95634C4.44863 3.46406 5.11631 3.1875 5.8125 3.1875H7.96875" stroke="black" stroke-width="2" stroke-linecap="round" stroke-linejoin="round"/>
</svg>
