<svg width="55" height="48" viewBox="0 0 55 48" fill="none" xmlns="http://www.w3.org/2000/svg">
<path d="M40 13.3333C40 22.6667 28 30.6667 28 30.6667C28 30.6667 16 22.6667 16 13.3333C16 10.1507 17.2643 7.0985 19.5147 4.84806C21.7652 2.59763 24.8174 1.33334 28 1.33334C31.1826 1.33334 34.2348 2.59763 36.4853 4.84806C38.7357 7.0985 40 10.1507 40 13.3333Z" fill="#008954"/>
<path d="M28 17.3333C30.2091 17.3333 32 15.5425 32 13.3333C32 11.1242 30.2091 9.33334 28 9.33334C25.7909 9.33334 24 11.1242 24 13.3333C24 15.5425 25.7909 17.3333 28 17.3333Z" fill="white"/>
<path d="M2.98801 36.5333C2.93988 36.5656 2.04688 40.1078 2.04688 40.1078H2.88641V47.4667H6.30872V44.1452L7.91293 47.4667H12.1908L8.90219 41.7497L11.6614 36.5602H7.80064L6.31942 39.7902L6.28733 36.5602L2.98801 36.5333Z" fill="#008954"/>
<path d="M13.5769 39.9571H12.748L13.5769 36.5333H16.812V41.2221L19.705 36.5333H23.0524L22.9615 44.2206H23.8813L23.031 47.3698H19.6622L19.6408 42.9609L16.8762 47.3698L13.5555 47.4667L13.5769 39.9571Z" fill="#008954"/>
<path fill-rule="evenodd" clip-rule="evenodd" d="M25.8318 36.5333L24.7998 39.8009L24.8586 40.0486H25.7142V47.4667H29.1953L29.1472 45.0442H30.2167C31.0383 45.0092 31.8295 44.7217 32.484 44.2206C34.1256 42.9717 34.0561 40.3877 34.0561 40.3877C33.9692 39.4633 33.5914 38.5909 32.9778 37.8976C32.3642 37.2043 31.5467 36.7264 30.6445 36.5333H25.8318ZM29.158 41.7497V40.0271H29.9547C30.1385 40.0228 30.3167 40.0903 30.452 40.2155C30.598 40.363 30.6983 40.55 30.7408 40.7538C30.7757 40.9711 30.7287 41.1937 30.609 41.378C30.4893 41.5622 30.3056 41.6948 30.0938 41.7497C30.046 41.7575 29.9972 41.7575 29.9494 41.7497H29.158Z" fill="#008954"/>
<path d="M34.8809 39.7525L35.8487 36.5333H42.9661L42.2923 39.9355H39.0839V47.4667H35.806V40.027H34.8809V39.7525Z" fill="#008954"/>
<path d="M49.6759 36.5333H52.9538L48.6438 47.3267L45.0771 47.4667L46.6706 44.6135L43.6387 36.5333H47.2107L48.2962 40.4308L49.6759 36.5333Z" fill="#008954"/>
</svg>
